<svg width="52" height="539" viewBox="0 0 52 539" fill="none" xmlns="http://www.w3.org/2000/svg">
<path d="M1.32 489.064H51V494.104H11.328L51 511.816V515.488L11.472 533.2H51V538.24H1.32V532.912L44.376 513.688L1.32 494.464V489.064ZM39.048 451.351V474.247L51 478.639V483.967L1.32 465.607V459.919L51 441.631V446.959L39.048 451.351ZM34.872 452.863L7.656 462.799L34.872 472.735V452.863ZM15.36 396.822C12.048 398.262 9.456 400.47 7.584 403.446C5.664 406.374 4.704 409.83 4.704 413.814C4.704 417.558 5.568 420.918 7.296 423.894C9.024 426.87 11.496 429.222 14.712 430.95C17.88 432.678 21.576 433.542 25.8 433.542C30.024 433.542 33.744 432.678 36.96 430.95C40.176 429.222 42.648 426.87 44.376 423.894C46.104 420.918 46.968 417.558 46.968 413.814C46.968 410.31 46.224 407.166 44.736 404.382C43.2 401.55 41.04 399.294 38.256 397.614C35.424 395.886 32.136 394.902 28.392 394.662V415.83H24.288V389.334H27.96C32.376 389.574 36.384 390.774 39.984 392.934C43.536 395.094 46.344 397.998 48.408 401.646C50.472 405.246 51.504 409.302 51.504 413.814C51.504 418.47 50.424 422.694 48.264 426.486C46.056 430.278 43.008 433.278 39.12 435.486C35.184 437.646 30.744 438.726 25.8 438.726C20.856 438.726 16.44 437.646 12.552 435.486C8.616 433.278 5.568 430.278 3.408 426.486C1.2 422.694 0.0959988 418.47 0.0959988 413.814C0.0959988 408.438 1.44 403.734 4.128 399.702C6.816 395.67 10.56 392.742 15.36 390.918V396.822ZM51.504 360.374C51.504 365.03 50.424 369.254 48.264 373.046C46.056 376.838 43.008 379.838 39.12 382.046C35.184 384.206 30.744 385.286 25.8 385.286C20.856 385.286 16.44 384.206 12.552 382.046C8.616 379.838 5.568 376.838 3.408 373.046C1.2 369.254 0.0959988 365.03 0.0959988 360.374C0.0959988 355.67 1.2 351.422 3.408 347.63C5.568 343.838 8.616 340.862 12.552 338.702C16.44 336.542 20.856 335.462 25.8 335.462C30.744 335.462 35.184 336.542 39.12 338.702C43.008 340.862 46.056 343.838 48.264 347.63C50.424 351.422 51.504 355.67 51.504 360.374ZM47.112 360.374C47.112 356.63 46.248 353.27 44.52 350.294C42.792 347.318 40.32 344.966 37.104 343.238C33.84 341.51 30.072 340.646 25.8 340.646C21.528 340.646 17.784 341.51 14.568 343.238C11.352 344.966 8.88 347.318 7.152 350.294C5.424 353.27 4.56 356.63 4.56 360.374C4.56 364.118 5.424 367.478 7.152 370.454C8.88 373.43 11.352 375.782 14.568 377.51C17.784 379.238 21.528 380.102 25.8 380.102C30.072 380.102 33.84 379.238 37.104 377.51C40.32 375.782 42.792 373.43 44.52 370.454C46.248 367.478 47.112 364.118 47.112 360.374ZM46.896 307.202V289.13H51V312.242H0.671996V307.202H46.896ZM0.671996 247.449H51V252.489H27.456L27.456 279.777H51V284.817H0.671996V279.777H23.28L23.28 252.489H0.671996V247.449ZM1.32 172.776H51V177.816H11.328L51 195.528V199.2L11.472 216.912H51V221.952H1.32V216.624L44.376 197.4L1.32 178.176V172.776ZM0.671996 159.399H32.352C37.344 159.399 41.04 158.223 43.44 155.871C45.84 153.471 47.04 150.207 47.04 146.079C47.04 141.951 45.864 138.735 43.512 136.431C41.112 134.079 37.392 132.903 32.352 132.903H0.671996V127.863H32.28C38.664 127.863 43.464 129.567 46.68 132.975C49.896 136.335 51.504 140.727 51.504 146.151C51.504 151.575 49.896 155.991 46.68 159.399C43.464 162.759 38.664 164.439 32.28 164.439H0.671996V159.399ZM51.504 104.237C51.504 107.549 50.928 110.477 49.776 113.021C48.624 115.517 47.016 117.485 44.952 118.925C42.888 120.365 40.584 121.133 38.04 121.229V115.901C40.488 115.661 42.648 114.581 44.52 112.661C46.344 110.741 47.256 107.933 47.256 104.237C47.256 100.829 46.392 98.1409 44.664 96.1729C42.888 94.1569 40.656 93.1489 37.968 93.1489C35.808 93.1489 34.08 93.7009 32.784 94.8049C31.44 95.9089 30.456 97.2769 29.832 98.9089C29.16 100.541 28.44 102.797 27.672 105.677C26.76 109.037 25.872 111.701 25.008 113.669C24.144 115.637 22.8 117.317 20.976 118.709C19.152 120.101 16.68 120.797 13.56 120.797C10.968 120.797 8.664 120.125 6.648 118.781C4.584 117.437 2.976 115.541 1.824 113.093C0.671999 110.645 0.0959988 107.837 0.0959988 104.669C0.0959988 100.013 1.248 96.2689 3.552 93.4369C5.808 90.5569 8.736 88.9009 12.336 88.4689V93.9409C10.272 94.2769 8.448 95.4049 6.864 97.3249C5.232 99.2449 4.416 101.837 4.416 105.101C4.416 108.125 5.232 110.645 6.864 112.661C8.448 114.677 10.632 115.685 13.416 115.685C15.528 115.685 17.232 115.133 18.528 114.029C19.824 112.925 20.808 111.557 21.48 109.925C22.152 108.245 22.872 105.989 23.64 103.157C24.552 99.8929 25.464 97.2529 26.376 95.2369C27.24 93.2209 28.584 91.5169 30.408 90.1249C32.232 88.7329 34.68 88.0369 37.752 88.0369C40.104 88.0369 42.336 88.6609 44.448 89.9089C46.56 91.1569 48.264 93.0049 49.56 95.4529C50.856 97.9009 51.504 100.829 51.504 104.237ZM4.776 76.1378H23.568V57.0578H27.744V76.1378H46.824V54.8978H51V81.1778H0.599997L0.599997 54.8978H4.776L4.776 76.1378ZM51.504 25.2389C51.504 29.8949 50.424 34.1189 48.264 37.9109C46.056 41.7029 43.008 44.7029 39.12 46.9109C35.184 49.0709 30.744 50.1509 25.8 50.1509C20.856 50.1509 16.44 49.0709 12.552 46.9109C8.616 44.7029 5.568 41.7029 3.408 37.9109C1.2 34.1189 0.0959988 29.8949 0.0959988 25.2389C0.0959988 20.5349 1.2 16.2869 3.408 12.4949C5.568 8.70287 8.616 5.72687 12.552 3.56687C16.44 1.40687 20.856 0.326872 25.8 0.326872C30.744 0.326872 35.184 1.40687 39.12 3.56687C43.008 5.72687 46.056 8.70287 48.264 12.4949C50.424 16.2869 51.504 20.5349 51.504 25.2389ZM47.112 25.2389C47.112 21.4949 46.248 18.1349 44.52 15.1589C42.792 12.1829 40.32 9.83087 37.104 8.10287C33.84 6.37487 30.072 5.51087 25.8 5.51087C21.528 5.51087 17.784 6.37487 14.568 8.10287C11.352 9.83087 8.88 12.1829 7.152 15.1589C5.424 18.1349 4.56 21.4949 4.56 25.2389C4.56 28.9829 5.424 32.3429 7.152 35.3189C8.88 38.2949 11.352 40.6469 14.568 42.3749C17.784 44.1029 21.528 44.9669 25.8 44.9669C30.072 44.9669 33.84 44.1029 37.104 42.3749C40.32 40.6469 42.792 38.2949 44.52 35.3189C46.248 32.3429 47.112 28.9829 47.112 25.2389Z" fill="white"/>
</svg>
