<svg width="52" height="577" viewBox="0 0 52 577" fill="none" xmlns="http://www.w3.org/2000/svg">
<path d="M1.176 525.552H51V532.104H13.848L51 548.664V553.272L13.776 569.904H51V576.456H1.176V569.4L42.36 550.968L1.176 532.536V525.552ZM39.84 487.656V509.544L51 513.576V520.488L1.104 502.344V494.784L51 476.712V483.624L39.84 487.656ZM34.512 489.528L9.168 498.6L34.512 507.672V489.528ZM15.36 433.669C12.432 435.061 10.176 437.077 8.592 439.717C6.96 442.357 6.144 445.429 6.144 448.933C6.144 452.437 6.96 455.605 8.592 458.437C10.176 461.221 12.48 463.429 15.504 465.061C18.48 466.645 21.936 467.437 25.872 467.437C29.808 467.437 33.264 466.645 36.24 465.061C39.216 463.429 41.52 461.221 43.152 458.437C44.736 455.605 45.528 452.437 45.528 448.933C45.528 444.037 44.064 440.005 41.136 436.837C38.208 433.669 34.248 431.821 29.256 431.293V451.309H23.928V424.309H28.968C33.096 424.693 36.888 425.989 40.344 428.197C43.752 430.405 46.464 433.309 48.48 436.909C50.448 440.509 51.432 444.517 51.432 448.933C51.432 453.589 50.352 457.837 48.192 461.677C45.984 465.517 42.936 468.565 39.048 470.821C35.16 473.029 30.768 474.133 25.872 474.133C20.976 474.133 16.584 473.029 12.696 470.821C8.76 468.565 5.712 465.517 3.552 461.677C1.344 457.837 0.239997 453.589 0.239997 448.933C0.239997 443.605 1.56 438.901 4.2 434.821C6.84 430.693 10.56 427.693 15.36 425.821V433.669ZM51.504 395.774C51.504 400.43 50.424 404.678 48.264 408.518C46.056 412.358 43.008 415.406 39.12 417.662C35.184 419.87 30.768 420.974 25.872 420.974C20.976 420.974 16.584 419.87 12.696 417.662C8.76 415.406 5.712 412.358 3.552 408.518C1.344 404.678 0.239997 400.43 0.239997 395.774C0.239997 391.07 1.344 386.798 3.552 382.958C5.712 379.118 8.736 376.094 12.624 373.886C16.512 371.678 20.928 370.574 25.872 370.574C30.816 370.574 35.232 371.678 39.12 373.886C43.008 376.094 46.056 379.118 48.264 382.958C50.424 386.798 51.504 391.07 51.504 395.774ZM45.816 395.774C45.816 392.27 45 389.126 43.368 386.342C41.736 383.51 39.408 381.302 36.384 379.718C33.36 378.086 29.856 377.27 25.872 377.27C21.84 377.27 18.336 378.086 15.36 379.718C12.336 381.302 10.008 383.486 8.376 386.27C6.744 389.054 5.928 392.222 5.928 395.774C5.928 399.326 6.744 402.494 8.376 405.278C10.008 408.062 12.336 410.27 15.36 411.902C18.336 413.486 21.84 414.278 25.872 414.278C29.856 414.278 33.36 413.486 36.384 411.902C39.408 410.27 41.736 408.062 43.368 405.278C45 402.446 45.816 399.278 45.816 395.774ZM45.672 341.937V324.369H51V348.489H0.815998V341.937H45.672ZM0.815998 313.739H51V320.291H0.815998V313.739ZM0.815998 263.98L51 282.916V290.476L0.815998 309.412L0.815998 302.428L44.088 286.66L0.815998 270.892V263.98ZM6.144 253.124H22.92V234.836H28.32V253.124H45.6V232.676H51V259.676H0.743999L0.743999 232.676H6.144V253.124ZM0.815998 178.438H6.144V192.118H51V198.67H6.144L6.144 212.422H0.815998L0.815998 178.438ZM0.815998 166.701H51V173.253H0.815998V166.701ZM25.872 160.862C20.976 160.862 16.584 159.758 12.696 157.55C8.76 155.342 5.688 152.342 3.48 148.55C1.272 144.71 0.167998 140.462 0.167998 135.806C0.167998 130.334 1.488 125.558 4.128 121.478C6.768 117.398 10.512 114.422 15.36 112.55V120.398C12.336 121.79 10.008 123.806 8.376 126.446C6.744 129.038 5.928 132.158 5.928 135.806C5.928 139.31 6.744 142.454 8.376 145.238C10.008 148.022 12.336 150.206 15.36 151.79C18.336 153.374 21.84 154.166 25.872 154.166C29.856 154.166 33.36 153.374 36.384 151.79C39.36 150.206 41.664 148.022 43.296 145.238C44.928 142.454 45.744 139.31 45.744 135.806C45.744 132.158 44.952 129.038 43.368 126.446C41.736 123.806 39.408 121.79 36.384 120.398V112.55C41.184 114.422 44.904 117.398 47.544 121.478C50.136 125.558 51.432 130.334 51.432 135.806C51.432 140.462 50.352 144.71 48.192 148.55C45.984 152.342 42.936 155.342 39.048 157.55C35.16 159.758 30.768 160.862 25.872 160.862ZM51 78.4613L28.104 99.1253H51V105.677H0.815998L0.815998 99.1253H24.072L0.815998 78.3893L0.815998 70.1092L25.944 92.8613L51 69.8933V78.4613ZM6.144 58.9037H22.92V40.6157H28.32V58.9037H45.6V38.4557H51L51 65.4557H0.743999L0.743999 38.4557H6.144V58.9037ZM0.815998 0.533634H6.144V14.2136H51V20.7656H6.144L6.144 34.5176H0.815998L0.815998 0.533634Z" fill="white"/>
</svg>
